<?xml version="1.0" encoding="utf-8"?>
<!-- Generator: Adobe Illustrator 24.0.1, SVG Export Plug-In . SVG Version: 6.00 Build 0)  -->
<svg version="1.1" id="Layer_1" xmlns="http://www.w3.org/2000/svg" xmlns:xlink="http://www.w3.org/1999/xlink" x="0px" y="0px"
	 viewBox="0 0 250 250" style="enable-background:new 0 0 250 250;" xml:space="preserve">
<style type="text/css">
	.st0{opacity:0.4;}
	.st1{fill:#709E40;}
	.st2{fill:#FFFFFF;}
</style>
<g class="st0">
	<path class="st1" d="M219.99,250h-190c-16.57,0-30-13.43-30-30V30c0-16.57,13.43-30,30-30h190c16.57,0,30,13.43,30,30v190
		C249.99,236.56,236.55,250,219.99,250z"/>
</g>
<path class="st2" d="M195.91,77.73h-41.36c-3.26,0-5.91-2.65-5.91-5.91V30.45H62.95c-4.88-0.01-8.85,3.94-8.86,8.82l0,0v171.41
	c-0.01,4.88,3.94,8.85,8.82,8.86l0,0h124.14c4.88,0.01,8.85-3.94,8.86-8.82l0,0V77.73z M77.73,57.05c0-1.63,1.32-2.95,2.95-2.95
	h29.55c1.63,0,2.95,1.32,2.95,2.95v5.91c0,1.63-1.32,2.95-2.95,2.95H80.68c-1.63,0-2.95-1.32-2.95-2.95V57.05z M77.73,86.59v-5.91
	c0-1.63,1.32-2.95,2.95-2.95h29.55c1.63,0,2.95,1.32,2.95,2.95v5.91c0,1.63-1.32,2.95-2.95,2.95H80.68
	C79.05,89.55,77.73,88.22,77.73,86.59z M130.91,184.05v8.91c0,1.63-1.32,2.95-2.95,2.95h-5.91c-1.63,0-2.95-1.32-2.95-2.95v-8.97
	c-4.19-0.22-8.22-1.68-11.59-4.19c-1.29-1-1.52-2.86-0.52-4.15c0.09-0.12,0.2-0.23,0.31-0.34l4.34-4.14
	c1.04-0.94,2.58-1.05,3.74-0.27c1.42,0.9,3.06,1.37,4.73,1.38h10.38c2.4,0,4.36-2.19,4.36-4.87c0-2.2-1.33-4.13-3.24-4.7
	l-16.62-4.99c-6.87-2.06-11.66-8.65-11.66-16.02c0-9.06,7.04-16.41,15.76-16.65v-8.91c0-1.63,1.32-2.95,2.95-2.95h5.91
	c1.63,0,2.95,1.32,2.95,2.95v8.97c4.19,0.21,8.23,1.67,11.59,4.19c1.29,1,1.52,2.86,0.52,4.15c-0.09,0.12-0.2,0.23-0.31,0.34
	l-4.34,4.14c-1.04,0.94-2.58,1.05-3.74,0.27c-1.42-0.9-3.06-1.38-4.73-1.38H119.5c-2.4,0-4.36,2.19-4.36,4.87
	c0,2.2,1.33,4.13,3.24,4.7l16.62,4.99c6.87,2.06,11.66,8.65,11.66,16.02C146.67,176.46,139.65,183.81,130.91,184.05L130.91,184.05z"
	/>
<path class="st1" d="M193.32,69.23l-36.16-36.19c-1.67-1.66-3.93-2.59-6.28-2.59h-2.25v41.36c0,3.26,2.65,5.91,5.91,5.91h41.36
	v-2.25C195.91,73.13,194.98,70.89,193.32,69.23z M135,151.38l-16.62-4.99c-1.91-0.57-3.24-2.5-3.24-4.7c0-2.68,1.96-4.87,4.36-4.87
	h10.38c1.68,0,3.32,0.48,4.73,1.38c1.16,0.78,2.71,0.67,3.74-0.27l4.34-4.14c1.19-1.12,1.25-2.99,0.13-4.18
	c-0.1-0.11-0.22-0.21-0.34-0.31c-3.36-2.52-7.39-3.98-11.59-4.19v-8.97c0-1.63-1.32-2.95-2.95-2.95h-5.91
	c-1.63,0-2.95,1.32-2.95,2.95v8.91c-8.72,0.23-15.76,7.59-15.76,16.65c0,7.39,4.8,13.96,11.66,16.02l16.62,4.99
	c1.91,0.57,3.24,2.5,3.24,4.7c0,2.68-1.96,4.87-4.36,4.87h-10.39c-1.68,0-3.32-0.48-4.73-1.38c-1.16-0.78-2.71-0.67-3.74,0.27
	l-4.34,4.14c-1.19,1.12-1.25,2.99-0.13,4.18c0.1,0.11,0.22,0.21,0.34,0.31c3.36,2.51,7.39,3.97,11.59,4.19v8.97
	c0,1.63,1.32,2.95,2.95,2.95h5.91c1.63,0,2.95-1.32,2.95-2.95v-8.91c8.74-0.23,15.76-7.59,15.76-16.65
	C146.67,160.03,141.87,153.44,135,151.38L135,151.38z"/>
</svg>
