<?xml version="1.0" encoding="utf-8"?>
<!-- Generator: Adobe Illustrator 24.0.1, SVG Export Plug-In . SVG Version: 6.00 Build 0)  -->
<svg version="1.1" id="Layer_1" xmlns="http://www.w3.org/2000/svg" xmlns:xlink="http://www.w3.org/1999/xlink" x="0px" y="0px"
	 viewBox="0 0 576 512" style="enable-background:new 0 0 576 512;" xml:space="preserve">
<style type="text/css">
	.st0{opacity:0.4;fill:#709E40;enable-background:new    ;}
	.st1{fill:#709E40;}
</style>
<path class="st0" d="M544,64H96c-17.7,0-32,14.3-32,32v322.2c0,0.4,0,0.7-0.1,1.1c0,0.2,0,0.4-0.1,0.6s-0.1,0.7-0.1,1
	s-0.1,0.5-0.1,0.7s-0.1,0.6-0.2,0.9s-0.1,0.5-0.2,0.7s-0.1,0.6-0.2,0.9s-0.1,0.5-0.2,0.7l-0.2,0.8l-0.2,0.7
	c-0.1,0.3-0.2,0.5-0.3,0.8s-0.2,0.5-0.3,0.7s-0.2,0.5-0.3,0.8s-0.2,0.5-0.3,0.7s-0.2,0.5-0.3,0.8l-0.3,0.6c-0.1,0.2-0.2,0.5-0.4,0.7
	l-0.4,0.6l-0.4,0.7l-0.4,0.6c-0.2,0.2-0.3,0.5-0.5,0.7l-0.4,0.6l-0.5,0.7c-0.2,0.2-0.3,0.4-0.5,0.6s-0.3,0.4-0.5,0.6l-0.5,0.5
	l-0.5,0.6l-0.5,0.5c-0.2,0.2-0.4,0.4-0.6,0.6l-0.5,0.5l-0.6,0.6l-0.5,0.5l-0.6,0.5l-0.6,0.5l-0.7,0.5l-0.6,0.4l-0.7,0.5
	c-0.2,0.1-0.4,0.3-0.6,0.4l-0.7,0.4l-0.7,0.4c-0.2,0.1-0.5,0.3-0.7,0.4l-0.7,0.3c-0.2,0.1-0.5,0.2-0.7,0.4l-0.7,0.3l-0.7,0.3
	l-0.7,0.3l-0.8,0.3l-0.7,0.2l-0.8,0.2l-0.8,0.2l-0.8,0.2l-0.8,0.2l-0.8,0.2l-0.8,0.1l-0.8,0.1l-0.8,0.1l-0.8,0.1l-0.8,0.1h-1.7H528
	c26.5,0,48-21.5,48-48V96C576,78.3,561.7,64,544,64z M304,372c0,6.6-5.4,12-12,12H140c-6.6,0-12-5.4-12-12v-8c0-6.6,5.4-12,12-12
	h152c6.6,0,12,5.4,12,12V372z M304,276c0,6.6-5.4,12-12,12H140c-6.6,0-12-5.4-12-12v-8c0-6.6,5.4-12,12-12h152c6.6,0,12,5.4,12,12
	V276z M512,372c0,6.6-5.4,12-12,12H348c-6.6,0-12-5.4-12-12v-8c0-6.6,5.4-12,12-12h152c6.6,0,12,5.4,12,12V372z M512,276
	c0,6.6-5.4,12-12,12H348c-6.6,0-12-5.4-12-12v-8c0-6.6,5.4-12,12-12h152c6.6,0,12,5.4,12,12V276z M512,180c0,6.6-5.4,12-12,12H140
	c-6.6,0-12-5.4-12-12v-40c0-6.6,5.4-12,12-12h360c6.6,0,12,5.4,12,12V180z"/>
<path class="st1" d="M292,352H140c-6.6,0-12,5.4-12,12v8c0,6.6,5.4,12,12,12h152c6.6,0,12-5.4,12-12v-8C304,357.4,298.6,352,292,352
	z M292,256H140c-6.6,0-12,5.4-12,12v8c0,6.6,5.4,12,12,12h152c6.6,0,12-5.4,12-12v-8C304,261.4,298.6,256,292,256z M500,352H348
	c-6.6,0-12,5.4-12,12v8c0,6.6,5.4,12,12,12h152c6.6,0,12-5.4,12-12v-8C512,357.4,506.6,352,500,352z M500,256H348
	c-6.6,0-12,5.4-12,12v8c0,6.6,5.4,12,12,12h152c6.6,0,12-5.4,12-12v-8C512,261.4,506.6,256,500,256z M0,128v287.3
	c0,17.4,13.7,32.2,31.1,32.7c17.7,0.5,32.4-13.4,32.9-31.1c0-0.3,0-0.6,0-0.9V96H32C14.3,96,0,110.3,0,128z"/>
</svg>
