<?xml version="1.0" encoding="utf-8"?>
<!-- Generator: Adobe Illustrator 24.0.1, SVG Export Plug-In . SVG Version: 6.00 Build 0)  -->
<svg version="1.1" id="Layer_1" xmlns="http://www.w3.org/2000/svg" xmlns:xlink="http://www.w3.org/1999/xlink" x="0px" y="0px"
	 viewBox="0 0 696.67 325.09" style="enable-background:new 0 0 696.67 325.09;" xml:space="preserve">
<style type="text/css">
	.st0{fill:#EDEFD5;}
	.st1{fill:url(#);}
	.st2{fill:#5F632A;}
	.st3{fill:#709E40;}
	.st4{fill:#66CC33;}
	.st5{fill:#F4CD54;}
	.st6{fill:#DF7706;}
	.st7{clip-path:url(#SVGID_2_);}
	.st8{fill:#E2CA4F;}
	.st9{fill:none;}
</style>
<g>
	<path class="st9" d="M616.14,263.63c8.44-4.84,44.65,3.57,59.16,28.89c7.08,12.37,8.63,24.26,8.56,32.57h12.82V0h-12.91
		c-0.29,5.32-1.18,8.58-1.18,8.58s-3.14-3.59-7.59-8.58h-6.82c12.35,14.16,25.14,27.94,25.14,27.94l-7.08,6.58l-9.67-16.88
		c-5.47,1.1-30.08,1.26-46.98-17.64h-39.97c-16.9,18.9-41.51,18.74-46.98,17.64l-9.67,16.88l-7.08-6.58c0,0,12.8-13.78,25.14-27.94
		h-6.82c-4.46,4.99-7.59,8.58-7.59,8.58s-0.88-3.26-1.18-8.58h-25.73c0.07,8.31-1.47,20.2-8.56,32.57
		C486.65,57.89,450.44,66.29,442,61.46c-3.77-2.16-0.55-44.04,8.51-57.91c0.82-1.25,1.67-2.42,2.55-3.55h-35.2
		c0.87,1.13,1.73,2.3,2.55,3.55c9.07,13.87,12.29,55.74,8.51,57.91c-8.44,4.84-44.65-3.57-59.16-28.89
		C362.67,20.2,361.13,8.31,361.2,0h-25.73c-0.29,5.32-1.18,8.58-1.18,8.58s-3.14-3.59-7.59-8.58h-6.82
		c12.35,14.16,25.14,27.94,25.14,27.94l-7.08,6.58l-9.67-16.88C322.81,18.74,298.2,18.9,281.3,0h-39.97
		c-16.9,18.9-41.51,18.74-46.98,17.64l-9.67,16.88l-7.08-6.58c0,0,12.8-13.78,25.14-27.94h-6.82c-4.46,4.99-7.59,8.58-7.59,8.58
		s-0.88-3.26-1.18-8.58h-25.73c0.07,8.31-1.47,20.2-8.56,32.57c-14.51,25.32-50.71,33.73-59.16,28.89
		c-3.77-2.16-0.55-44.04,8.51-57.91c0.82-1.25,1.67-2.42,2.55-3.55h-35.2c0.87,1.13,1.73,2.3,2.55,3.55
		c9.06,13.87,12.29,55.74,8.51,57.91c-8.44,4.84-44.65-3.57-59.16-28.89C14.39,20.2,12.85,8.31,12.92,0H0v325.09h13.01
		c0.29-5.32,1.18-8.58,1.18-8.58s3.14,3.59,7.59,8.58h6.82c-12.35-14.16-25.14-27.94-25.14-27.94l7.08-6.58l9.67,16.88
		c5.47-1.1,30.08-1.26,46.98,17.64h39.97c16.9-18.9,41.51-18.74,46.98-17.64l9.67-16.88l7.08,6.58c0,0-12.8,13.78-25.14,27.94h6.82
		c4.46-4.99,7.59-8.58,7.59-8.58s0.88,3.26,1.18,8.58h25.73c-0.07-8.31,1.47-20.2,8.56-32.57c14.51-25.32,50.71-33.73,59.16-28.89
		c3.77,2.16,0.55,44.04-8.51,57.91c-0.82,1.25-1.67,2.42-2.55,3.55h35.2c-0.87-1.13-1.73-2.3-2.55-3.55
		c-9.06-13.87-12.29-55.74-8.51-57.91c8.44-4.84,44.65,3.57,59.16,28.89c7.08,12.37,8.63,24.26,8.56,32.57h25.73
		c0.29-5.32,1.18-8.58,1.18-8.58s3.14,3.59,7.59,8.58h6.82c-12.35-14.16-25.14-27.94-25.14-27.94l7.08-6.58l9.67,16.88
		c5.47-1.1,30.08-1.26,46.98,17.64h39.97c16.9-18.9,41.51-18.74,46.98-17.64l9.67-16.88l7.08,6.58c0,0-12.8,13.78-25.14,27.94h6.82
		c4.46-4.99,7.59-8.58,7.59-8.58s0.88,3.26,1.18,8.58h25.73c-0.07-8.31,1.47-20.2,8.56-32.57c14.51-25.32,50.71-33.73,59.16-28.89
		c3.77,2.16,0.55,44.04-8.51,57.91c-0.82,1.25-1.67,2.42-2.55,3.55h35.21c-0.87-1.13-1.73-2.3-2.55-3.55
		C615.59,307.67,612.37,265.79,616.14,263.63z M616.14,17.65c8.44-4.84,44.65,3.57,59.16,28.89c13.07,22.81,7.29,44.03,7.29,44.03
		s-32.62-37.37-37-38.51c-1.05,5.37,47.72,57.86,47.72,57.86l-7.08,6.58l-9.67-16.88c-6.03,1.21-35.33,1.28-51.91-24.07
		C615.59,61.69,612.37,19.81,616.14,17.65z M616.14,99.64c8.44-4.84,44.65,3.57,59.16,28.89c13.07,22.81,7.29,44.03,7.29,44.03
		s-32.62-37.37-37-38.51c-1.05,5.37,47.72,57.86,47.72,57.86l-7.08,6.58l-9.67-16.88c-6.03,1.21-35.33,1.28-51.91-24.07
		C615.59,143.69,612.37,101.81,616.14,99.64z M616.14,181.64c8.44-4.84,44.65,3.57,59.16,28.89c13.07,22.81,7.29,44.03,7.29,44.03
		s-32.62-37.37-37-38.51c-1.05,5.37,47.72,57.86,47.72,57.86l-7.08,6.58l-9.67-16.88c-6.03,1.21-35.33,1.28-51.91-24.07
		C615.59,225.68,612.37,183.8,616.14,181.64z M80.63,307.44c-8.44,4.84-44.65-3.57-59.16-28.89c-13.07-22.81-7.29-44.03-7.29-44.03
		s32.62,37.37,37,38.51c1.05-5.37-47.72-57.86-47.72-57.86l7.08-6.58l9.67,16.88c6.03-1.21,35.33-1.28,51.91,24.07
		C81.18,263.39,84.4,305.27,80.63,307.44z M80.63,225.44c-8.44,4.84-44.65-3.57-59.16-28.89c-13.07-22.81-7.29-44.03-7.29-44.03
		s32.62,37.37,37,38.51c1.05-5.37-47.72-57.86-47.72-57.86l7.08-6.58l9.67,16.88c6.03-1.21,35.33-1.28,51.91,24.07
		C81.18,181.4,84.4,223.28,80.63,225.44z M80.63,143.45c-8.44,4.84-44.65-3.57-59.16-28.89c-13.07-22.81-7.29-44.03-7.29-44.03
		s32.62,37.37,37,38.51c1.05-5.37-47.72-57.86-47.72-57.86l7.08-6.58l9.67,16.88c6.03-1.21,35.33-1.28,51.91,24.07
		C81.18,99.41,84.4,141.29,80.63,143.45z M123.16,273.02c4.38-1.14,37-38.51,37-38.51s5.78,21.23-7.29,44.03
		c-14.51,25.32-50.71,33.73-59.16,28.89c-3.77-2.16-0.55-44.04,8.51-57.91c16.58-25.36,45.88-25.29,51.91-24.07l9.67-16.88
		l7.08,6.58C170.89,215.15,122.12,267.65,123.16,273.02z M123.16,191.02c4.38-1.14,37-38.51,37-38.51s5.78,21.23-7.29,44.03
		c-14.51,25.32-50.71,33.73-59.16,28.89c-3.77-2.16-0.55-44.04,8.51-57.91c16.58-25.36,45.88-25.29,51.91-24.07l9.67-16.88
		l7.08,6.58C170.89,133.16,122.12,185.66,123.16,191.02z M123.16,109.03c4.38-1.14,37-38.51,37-38.51s5.78,21.23-7.29,44.03
		c-14.51,25.32-50.71,33.73-59.16,28.89c-3.77-2.16-0.55-44.04,8.51-57.91c16.58-25.36,45.88-25.29,51.91-24.07l9.67-16.88
		l7.08,6.58C170.89,51.17,122.12,103.66,123.16,109.03z M246.26,239.54c-16.58,25.36-45.88,25.29-51.91,24.07l-9.67,16.88
		l-7.08-6.58c0,0,48.77-52.5,47.72-57.86c-4.38,1.14-37,38.51-37,38.51s-5.78-21.23,7.29-44.03c14.51-25.32,50.71-33.73,59.16-28.89
		C258.55,183.8,255.33,225.68,246.26,239.54z M246.26,157.55c-16.58,25.36-45.88,25.29-51.91,24.07l-9.67,16.88l-7.08-6.58
		c0,0,48.77-52.5,47.72-57.86c-4.38,1.14-37,38.51-37,38.51s-5.78-21.23,7.29-44.03c14.51-25.32,50.71-33.73,59.16-28.89
		C258.55,101.81,255.33,143.69,246.26,157.55z M246.26,75.56c-16.58,25.36-45.88,25.29-51.91,24.07l-9.67,16.88l-7.08-6.58
		c0,0,48.77-52.5,47.72-57.86c-4.38,1.14-37,38.51-37,38.51s-5.78-21.23,7.29-44.03c14.51-25.32,50.71-33.73,59.16-28.89
		C258.55,19.81,255.33,61.69,246.26,75.56z M337.95,280.5l-9.67-16.88c-6.03,1.21-35.33,1.28-51.91-24.07
		c-9.06-13.87-12.29-55.74-8.51-57.91c8.44-4.84,44.65,3.57,59.16,28.89c13.07,22.81,7.29,44.03,7.29,44.03s-32.62-37.37-37-38.51
		c-1.05,5.37,47.72,57.86,47.72,57.86L337.95,280.5z M337.95,198.51l-9.67-16.88c-6.03,1.21-35.33,1.28-51.91-24.07
		c-9.06-13.87-12.29-55.74-8.51-57.91c8.44-4.84,44.65,3.57,59.16,28.89c13.07,22.81,7.29,44.03,7.29,44.03s-32.62-37.37-37-38.51
		c-1.05,5.37,47.72,57.86,47.72,57.86L337.95,198.51z M337.95,116.51l-9.67-16.88c-6.03,1.21-35.33,1.28-51.91-24.07
		c-9.06-13.87-12.29-55.74-8.51-57.91c8.44-4.84,44.65,3.57,59.16,28.89c13.07,22.81,7.29,44.03,7.29,44.03s-32.62-37.37-37-38.51
		c-1.05,5.37,47.72,57.86,47.72,57.86L337.95,116.51z M428.91,307.44c-8.44,4.84-44.65-3.57-59.16-28.89
		c-13.07-22.81-7.29-44.03-7.29-44.03s32.62,37.37,37,38.51c1.05-5.37-47.72-57.86-47.72-57.86l7.08-6.58l9.67,16.88
		c6.03-1.21,35.33-1.28,51.91,24.07C429.47,263.39,432.69,305.27,428.91,307.44z M428.91,225.44c-8.44,4.84-44.65-3.57-59.16-28.89
		c-13.07-22.81-7.29-44.03-7.29-44.03s32.62,37.37,37,38.51c1.05-5.37-47.72-57.86-47.72-57.86l7.08-6.58l9.67,16.88
		c6.03-1.21,35.33-1.28,51.91,24.07C429.47,181.4,432.69,223.28,428.91,225.44z M428.91,143.45c-8.44,4.84-44.65-3.57-59.16-28.89
		c-13.07-22.81-7.29-44.03-7.29-44.03s32.62,37.37,37,38.51c1.05-5.37-47.72-57.86-47.72-57.86l7.08-6.58l9.67,16.88
		c6.03-1.21,35.33-1.28,51.91,24.07C429.47,99.41,432.69,141.29,428.91,143.45z M471.45,273.02c4.38-1.14,37-38.51,37-38.51
		s5.78,21.23-7.29,44.03c-14.51,25.32-50.71,33.73-59.16,28.89c-3.77-2.16-0.55-44.04,8.51-57.91
		c16.58-25.36,45.88-25.29,51.91-24.07l9.67-16.88l7.08,6.58C519.17,215.15,470.4,267.65,471.45,273.02z M471.45,191.02
		c4.38-1.14,37-38.51,37-38.51s5.78,21.23-7.29,44.03c-14.51,25.32-50.71,33.73-59.16,28.89c-3.77-2.16-0.55-44.04,8.51-57.91
		c16.58-25.36,45.88-25.29,51.91-24.07l9.67-16.88l7.08,6.58C519.17,133.16,470.4,185.66,471.45,191.02z M471.45,109.03
		c4.38-1.14,37-38.51,37-38.51s5.78,21.23-7.29,44.03c-14.51,25.32-50.71,33.73-59.16,28.89c-3.77-2.16-0.55-44.04,8.51-57.91
		c16.58-25.36,45.88-25.29,51.91-24.07l9.67-16.88l7.08,6.58C519.17,51.17,470.4,103.66,471.45,109.03z M594.55,239.54
		c-16.58,25.36-45.88,25.29-51.91,24.07l-9.67,16.88l-7.08-6.58c0,0,48.77-52.5,47.72-57.86c-4.38,1.14-37,38.51-37,38.51
		s-5.78-21.23,7.29-44.03c14.51-25.32,50.71-33.73,59.16-28.89C606.83,183.8,603.61,225.68,594.55,239.54z M594.55,157.55
		c-16.58,25.36-45.88,25.29-51.91,24.07l-9.67,16.88l-7.08-6.58c0,0,48.77-52.5,47.72-57.86c-4.38,1.14-37,38.51-37,38.51
		s-5.78-21.23,7.29-44.03c14.51-25.32,50.71-33.73,59.16-28.89C606.83,101.81,603.61,143.69,594.55,157.55z M594.55,75.56
		c-16.58,25.36-45.88,25.29-51.91,24.07l-9.67,16.88l-7.08-6.58c0,0,48.77-52.5,47.72-57.86c-4.38,1.14-37,38.51-37,38.51
		s-5.78-21.23,7.29-44.03c14.51-25.32,50.71-33.73,59.16-28.89C606.83,19.81,603.61,61.69,594.55,75.56z"/>
	<path class="st9" d="M198.51,325.09h6.74c10.8-12.51,20.55-24.61,20.08-27.04C222.55,298.77,208.47,314,198.51,325.09z"/>
	<path class="st9" d="M498.27,0h-6.74c-10.8,12.51-20.55,24.61-20.08,27.04C474.22,26.32,488.3,11.09,498.27,0z"/>
	<path class="st9" d="M51.18,27.04C51.66,24.61,41.91,12.51,31.1,0h-6.74C34.33,11.09,48.41,26.32,51.18,27.04z"/>
	<path class="st9" d="M297.31,298.05c-0.47,2.43,9.27,14.53,20.08,27.04h6.74C314.16,314,300.08,298.77,297.31,298.05z"/>
	<path class="st9" d="M645.59,298.05c-0.47,2.43,9.27,14.53,20.08,27.04h6.74C662.44,314,648.36,298.77,645.59,298.05z"/>
	<path class="st9" d="M399.47,27.04c0.47-2.43-9.27-14.53-20.08-27.04h-6.74C382.61,11.09,396.7,26.32,399.47,27.04z"/>
	<path class="st9" d="M546.79,325.09h6.74c10.8-12.51,20.55-24.61,20.08-27.04C570.84,298.77,556.76,314,546.79,325.09z"/>
	<path class="st9" d="M149.98,0h-6.74c-10.8,12.51-20.55,24.61-20.08,27.04C125.93,26.32,140.02,11.09,149.98,0z"/>
	<path class="st3" d="M93.72,61.46c8.44,4.84,44.65-3.57,59.16-28.89C159.96,20.2,161.5,8.31,161.43,0h-11.44
		c-9.97,11.09-24.05,26.32-26.82,27.04c-0.47-2.43,9.27-14.53,20.08-27.04h-38.47c-0.87,1.13-1.73,2.3-2.55,3.55
		C93.16,17.42,89.94,59.29,93.72,61.46z"/>
	<path class="st6" d="M21.47,32.57c14.51,25.32,50.71,33.73,59.16,28.89c3.77-2.16,0.55-44.04-8.51-57.91
		C71.3,2.3,70.45,1.13,69.57,0H31.1c10.8,12.51,20.55,24.61,20.08,27.04C48.41,26.32,34.33,11.09,24.36,0H12.92
		C12.85,8.31,14.39,20.2,21.47,32.57z"/>
	<path class="st8" d="M154.14,61.47c-6.03-1.21-35.33-1.28-51.91,24.07c-9.06,13.87-12.29,55.74-8.51,57.91
		c8.44,4.84,44.65-3.57,59.16-28.89c13.07-22.81,7.29-44.03,7.29-44.03s-32.62,37.37-37,38.51c-1.05-5.37,47.72-57.86,47.72-57.86
		l-7.08-6.58L154.14,61.47z"/>
	<path class="st3" d="M20.21,61.47l-9.67-16.88l-7.08,6.58c0,0,48.77,52.5,47.72,57.86c-4.38-1.14-37-38.51-37-38.51
		s-5.78,21.23,7.29,44.03c14.51,25.32,50.71,33.73,59.16,28.89c3.77-2.16,0.55-44.04-8.51-57.91
		C55.54,60.18,26.24,60.26,20.21,61.47z"/>
	<path class="st6" d="M154.14,143.46c-6.03-1.21-35.33-1.28-51.91,24.07c-9.06,13.87-12.29,55.74-8.51,57.91
		c8.44,4.84,44.65-3.57,59.16-28.89c13.07-22.81,7.29-44.03,7.29-44.03s-32.62,37.37-37,38.51c-1.05-5.37,47.72-57.86,47.72-57.86
		l-7.08-6.58L154.14,143.46z"/>
	<path class="st3" d="M20.21,143.46l-9.67-16.88l-7.08,6.58c0,0,48.77,52.5,47.72,57.86c-4.38-1.14-37-38.51-37-38.51
		s-5.78,21.23,7.29,44.03c14.51,25.32,50.71,33.73,59.16,28.89c3.77-2.16,0.55-44.04-8.51-57.91
		C55.54,142.18,26.24,142.25,20.21,143.46z"/>
	<path class="st3" d="M154.14,225.45c-6.03-1.21-35.33-1.28-51.91,24.07c-9.06,13.87-12.29,55.74-8.51,57.91
		c8.44,4.84,44.65-3.57,59.16-28.89c13.07-22.81,7.29-44.03,7.29-44.03s-32.62,37.37-37,38.51c-1.05-5.37,47.72-57.86,47.72-57.86
		l-7.08-6.58L154.14,225.45z"/>
	<path class="st8" d="M20.21,225.45l-9.67-16.88l-7.08,6.58c0,0,48.77,52.5,47.72,57.86c-4.38-1.14-37-38.51-37-38.51
		s-5.78,21.23,7.29,44.03c14.51,25.32,50.71,33.73,59.16,28.89c3.77-2.16,0.55-44.04-8.51-57.91
		C55.54,224.17,26.24,224.24,20.21,225.45z"/>
	<path class="st3" d="M152.57,325.09h8.77c-0.29-5.32-1.18-8.58-1.18-8.58S157.02,320.1,152.57,325.09z"/>
	<path class="st3" d="M170.89,297.15l-7.08-6.58l-9.67,16.88c-5.47-1.1-30.08-1.26-46.98,17.64h38.59
		C158.09,310.93,170.89,297.15,170.89,297.15z"/>
	<path class="st6" d="M20.21,307.45l-9.67-16.88l-7.08,6.58c0,0,12.8,13.78,25.14,27.94h38.59
		C50.29,306.19,25.68,306.35,20.21,307.45z"/>
	<path class="st6" d="M14.19,316.5c0,0-0.88,3.26-1.18,8.58h8.77C17.32,320.1,14.19,316.5,14.19,316.5z"/>
	<path class="st3" d="M327.01,292.52c-14.51-25.32-50.71-33.73-59.16-28.89c-3.77,2.16-0.55,44.04,8.51,57.91
		c0.82,1.25,1.67,2.42,2.55,3.55h38.47c-10.8-12.51-20.55-24.61-20.08-27.04c2.77,0.72,16.85,15.95,26.82,27.04h11.44
		C335.64,316.78,334.1,304.89,327.01,292.52z"/>
	<path class="st8" d="M254.77,263.63c-8.44-4.84-44.65,3.57-59.16,28.89c-7.08,12.37-8.63,24.26-8.56,32.57h11.44
		c9.97-11.09,24.05-26.32,26.82-27.04c0.47,2.43-9.27,14.53-20.08,27.04h38.47c0.87-1.13,1.73-2.3,2.55-3.55
		C255.33,307.67,258.55,265.79,254.77,263.63z"/>
	<path class="st6" d="M334.3,254.56c0,0,5.78-21.23-7.29-44.03c-14.51-25.32-50.71-33.73-59.16-28.89
		c-3.77,2.16-0.55,44.04,8.51,57.91c16.58,25.36,45.88,25.29,51.91,24.07l9.67,16.88l7.08-6.58c0,0-48.77-52.5-47.72-57.86
		C301.68,217.19,334.3,254.56,334.3,254.56z"/>
	<path class="st3" d="M254.77,181.64c-8.44-4.84-44.65,3.57-59.16,28.89c-13.07,22.81-7.29,44.03-7.29,44.03s32.62-37.37,37-38.51
		c1.05,5.37-47.72,57.86-47.72,57.86l7.08,6.58l9.67-16.88c6.03,1.21,35.33,1.28,51.91-24.07
		C255.33,225.68,258.55,183.8,254.77,181.64z"/>
	<path class="st3" d="M334.3,172.57c0,0,5.78-21.23-7.29-44.03c-14.51-25.32-50.71-33.73-59.16-28.89
		c-3.77,2.16-0.55,44.04,8.51,57.91c16.58,25.36,45.88,25.29,51.91,24.07l9.67,16.88l7.08-6.58c0,0-48.77-52.5-47.72-57.86
		C301.68,135.2,334.3,172.57,334.3,172.57z"/>
	<path class="st6" d="M254.77,99.64c-8.44-4.84-44.65,3.57-59.16,28.89c-13.07,22.81-7.29,44.03-7.29,44.03s32.62-37.37,37-38.51
		c1.05,5.37-47.72,57.86-47.72,57.86l7.08,6.58l9.67-16.88c6.03,1.21,35.33,1.28,51.91-24.07
		C255.33,143.69,258.55,101.81,254.77,99.64z"/>
	<path class="st8" d="M334.3,90.58c0,0,5.78-21.23-7.29-44.03c-14.51-25.32-50.71-33.73-59.16-28.89
		c-3.77,2.16-0.55,44.04,8.51,57.91c16.58,25.36,45.88,25.29,51.91,24.07l9.67,16.88l7.08-6.58c0,0-48.77-52.5-47.72-57.86
		C301.68,53.21,334.3,90.58,334.3,90.58z"/>
	<path class="st3" d="M254.77,17.65c-8.44-4.84-44.65,3.57-59.16,28.89c-13.07,22.81-7.29,44.03-7.29,44.03s32.62-37.37,37-38.51
		c1.05,5.37-47.72,57.86-47.72,57.86l7.08,6.58l9.67-16.88c6.03,1.21,35.33,1.28,51.91-24.07
		C255.33,61.69,258.55,19.81,254.77,17.65z"/>
	<path class="st3" d="M334.3,8.58c0,0,0.88-3.26,1.18-8.58h-8.77C331.17,4.99,334.3,8.58,334.3,8.58z"/>
	<path class="st3" d="M328.28,17.64l9.67,16.88l7.08-6.58c0,0-12.8-13.78-25.14-27.94H281.3C298.2,18.9,322.81,18.74,328.28,17.64z"
		/>
	<path class="st8" d="M195.92,0h-8.77c0.29,5.32,1.18,8.58,1.18,8.58S191.47,4.99,195.92,0z"/>
	<path class="st8" d="M177.6,27.94l7.08,6.58l9.67-16.88c5.47,1.1,30.08,1.26,46.98-17.64h-38.59
		C190.4,14.16,177.6,27.94,177.6,27.94z"/>
	<path class="st3" d="M442,61.46c8.44,4.84,44.65-3.57,59.16-28.89c7.08-12.37,8.63-24.26,8.56-32.57h-11.44
		c-9.97,11.09-24.05,26.32-26.82,27.04c-0.47-2.43,9.27-14.53,20.08-27.04h-38.47c-0.87,1.13-1.73,2.3-2.55,3.55
		C441.45,17.42,438.23,59.29,442,61.46z"/>
	<path class="st6" d="M369.76,32.57c14.51,25.32,50.71,33.73,59.16,28.89c3.77-2.16,0.55-44.04-8.51-57.91
		c-0.82-1.25-1.67-2.42-2.55-3.55h-38.47c10.8,12.51,20.55,24.61,20.08,27.04C396.7,26.32,382.61,11.09,372.65,0H361.2
		C361.13,8.31,362.67,20.2,369.76,32.57z"/>
	<path class="st3" d="M502.42,61.47c-6.03-1.21-35.33-1.28-51.91,24.07c-9.06,13.87-12.29,55.74-8.51,57.91
		c8.44,4.84,44.65-3.57,59.16-28.89c13.07-22.81,7.29-44.03,7.29-44.03s-32.62,37.37-37,38.51c-1.05-5.37,47.72-57.86,47.72-57.86
		l-7.08-6.58L502.42,61.47z"/>
	<path class="st3" d="M368.49,61.47l-9.67-16.88l-7.08,6.58c0,0,48.77,52.5,47.72,57.86c-4.38-1.14-37-38.51-37-38.51
		s-5.78,21.23,7.29,44.03c14.51,25.32,50.71,33.73,59.16,28.89c3.77-2.16,0.55-44.04-8.51-57.91
		C403.82,60.18,374.52,60.26,368.49,61.47z"/>
	<path class="st6" d="M502.42,143.46c-6.03-1.21-35.33-1.28-51.91,24.07c-9.06,13.87-12.29,55.74-8.51,57.91
		c8.44,4.84,44.65-3.57,59.16-28.89c13.07-22.81,7.29-44.03,7.29-44.03s-32.62,37.37-37,38.51c-1.05-5.37,47.72-57.86,47.72-57.86
		l-7.08-6.58L502.42,143.46z"/>
	<path class="st8" d="M368.49,143.46l-9.67-16.88l-7.08,6.58c0,0,48.77,52.5,47.72,57.86c-4.38-1.14-37-38.51-37-38.51
		s-5.78,21.23,7.29,44.03c14.51,25.32,50.71,33.73,59.16,28.89c3.77-2.16,0.55-44.04-8.51-57.91
		C403.82,142.18,374.52,142.25,368.49,143.46z"/>
	<path class="st8" d="M502.42,225.45c-6.03-1.21-35.33-1.28-51.91,24.07c-9.06,13.87-12.29,55.74-8.51,57.91
		c8.44,4.84,44.65-3.57,59.16-28.89c13.07-22.81,7.29-44.03,7.29-44.03s-32.62,37.37-37,38.51c-1.05-5.37,47.72-57.86,47.72-57.86
		l-7.08-6.58L502.42,225.45z"/>
	<path class="st3" d="M368.49,225.45l-9.67-16.88l-7.08,6.58c0,0,48.77,52.5,47.72,57.86c-4.38-1.14-37-38.51-37-38.51
		s-5.78,21.23,7.29,44.03c14.51,25.32,50.71,33.73,59.16,28.89c3.77-2.16,0.55-44.04-8.51-57.91
		C403.82,224.17,374.52,224.24,368.49,225.45z"/>
	<path class="st3" d="M500.85,325.09h8.77c-0.29-5.32-1.18-8.58-1.18-8.58S505.31,320.1,500.85,325.09z"/>
	<path class="st3" d="M519.17,297.15l-7.08-6.58l-9.67,16.88c-5.47-1.1-30.08-1.26-46.98,17.64h38.59
		C506.37,310.93,519.17,297.15,519.17,297.15z"/>
	<path class="st6" d="M368.49,307.45l-9.67-16.88l-7.08,6.58c0,0,12.8,13.78,25.14,27.94h38.59
		C398.57,306.19,373.96,306.35,368.49,307.45z"/>
	<path class="st6" d="M362.47,316.5c0,0-0.88,3.26-1.18,8.58h8.77C365.61,320.1,362.47,316.5,362.47,316.5z"/>
	<path class="st8" d="M672.41,325.09h11.44c0.07-8.31-1.47-20.2-8.56-32.57c-14.51-25.32-50.71-33.73-59.16-28.89
		c-3.77,2.16-0.55,44.04,8.51,57.91c0.82,1.25,1.67,2.42,2.55,3.55h38.47c-10.8-12.51-20.55-24.61-20.08-27.04
		C648.36,298.77,662.44,314,672.41,325.09z"/>
	<path class="st3" d="M603.06,263.63c-8.44-4.84-44.65,3.57-59.16,28.89c-7.08,12.37-8.63,24.26-8.56,32.57h11.44
		c9.97-11.09,24.05-26.32,26.82-27.04c0.47,2.43-9.27,14.53-20.08,27.04H592c0.87-1.13,1.73-2.3,2.55-3.55
		C603.61,307.67,606.83,265.79,603.06,263.63z"/>
	<path class="st3" d="M676.56,263.62l9.67,16.88l7.08-6.58c0,0-48.77-52.5-47.72-57.86c4.38,1.14,37,38.51,37,38.51
		s5.78-21.23-7.29-44.03c-14.51-25.32-50.71-33.73-59.16-28.89c-3.77,2.16-0.55,44.04,8.51,57.91
		C641.23,264.9,670.53,264.83,676.56,263.62z"/>
	<path class="st8" d="M603.06,181.64c-8.44-4.84-44.65,3.57-59.16,28.89c-13.07,22.81-7.29,44.03-7.29,44.03s32.62-37.37,37-38.51
		c1.05,5.37-47.72,57.86-47.72,57.86l7.08,6.58l9.67-16.88c6.03,1.21,35.33,1.28,51.91-24.07
		C603.61,225.68,606.83,183.8,603.06,181.64z"/>
	<path class="st6" d="M676.56,181.62l9.67,16.88l7.08-6.58c0,0-48.77-52.5-47.72-57.86c4.38,1.14,37,38.51,37,38.51
		s5.78-21.23-7.29-44.03c-14.51-25.32-50.71-33.73-59.16-28.89c-3.77,2.16-0.55,44.04,8.51,57.91
		C641.23,182.91,670.53,182.84,676.56,181.62z"/>
	<path class="st3" d="M603.06,99.64c-8.44-4.84-44.65,3.57-59.16,28.89c-13.07,22.81-7.29,44.03-7.29,44.03s32.62-37.37,37-38.51
		c1.05,5.37-47.72,57.86-47.72,57.86l7.08,6.58l9.67-16.88c6.03,1.21,35.33,1.28,51.91-24.07
		C603.61,143.69,606.83,101.81,603.06,99.64z"/>
	<path class="st3" d="M676.56,99.63l9.67,16.88l7.08-6.58c0,0-48.77-52.5-47.72-57.86c4.38,1.14,37,38.51,37,38.51
		s5.78-21.23-7.29-44.03c-14.51-25.32-50.71-33.73-59.16-28.89c-3.77,2.16-0.55,44.04,8.51,57.91
		C641.23,100.92,670.53,100.85,676.56,99.63z"/>
	<path class="st6" d="M603.06,17.65c-8.44-4.84-44.65,3.57-59.16,28.89c-13.07,22.81-7.29,44.03-7.29,44.03s32.62-37.37,37-38.51
		c1.05,5.37-47.72,57.86-47.72,57.86l7.08,6.58l9.67-16.88c6.03,1.21,35.33,1.28,51.91-24.07
		C603.61,61.69,606.83,19.81,603.06,17.65z"/>
	<path class="st8" d="M682.59,8.58c0,0,0.88-3.26,1.18-8.58h-8.77C679.45,4.99,682.59,8.58,682.59,8.58z"/>
	<path class="st8" d="M676.56,17.64l9.67,16.88l7.08-6.58c0,0-12.8-13.78-25.14-27.94h-38.59C646.48,18.9,671.09,18.74,676.56,17.64
		z"/>
	<path class="st3" d="M525.88,27.94l7.08,6.58l9.67-16.88c5.47,1.1,30.08,1.26,46.98-17.64h-38.59
		C538.68,14.16,525.88,27.94,525.88,27.94z"/>
	<path class="st3" d="M544.21,0h-8.77c0.29,5.32,1.18,8.58,1.18,8.58S539.75,4.99,544.21,0z"/>
</g>
</svg>
