<?xml version="1.0" encoding="utf-8"?>
<!-- Generator: Adobe Illustrator 24.0.1, SVG Export Plug-In . SVG Version: 6.00 Build 0)  -->
<svg version="1.1" id="Layer_1" xmlns="http://www.w3.org/2000/svg" xmlns:xlink="http://www.w3.org/1999/xlink" x="0px" y="0px"
	 viewBox="0 0 250 250" style="enable-background:new 0 0 250 250;" xml:space="preserve">
<style type="text/css">
	.st0{opacity:0.4;}
	.st1{fill:#709E40;}
	.st2{fill:#FFFFFF;enable-background:new    ;}
</style>
<g class="st0">
	<path class="st1" d="M220,250H30c-16.57,0-30-13.43-30-30V30C0,13.43,13.43,0,30,0h190c16.57,0,30,13.43,30,30v190
		C250,236.57,236.57,250,220,250z"/>
</g>
<path class="st2" d="M178.44,53.75h-29.69c13.12,0,23.75,10.63,23.75,23.75h-95c0-13.12,10.63-23.75,23.75-23.75H71.56
	c-9.84,0-17.81,7.97-17.81,17.81v130.62c0,9.84,7.97,17.81,17.81,17.81l0,0h106.88c9.84,0,17.81-7.97,17.81-17.81l0,0V71.56
	C196.25,61.72,188.28,53.75,178.44,53.75z M89.38,187.34c-4.92,0-8.91-3.99-8.91-8.91s3.99-8.91,8.91-8.91s8.91,3.99,8.91,8.91
	c0.01,4.91-3.96,8.89-8.86,8.91C89.4,187.34,89.39,187.34,89.38,187.34z M89.38,151.72c-4.92,0-8.91-3.99-8.91-8.91
	s3.99-8.91,8.91-8.91s8.91,3.99,8.91,8.91c0.01,4.91-3.96,8.89-8.86,8.91C89.4,151.72,89.39,151.72,89.38,151.72z M89.38,116.09
	c-4.92,0-8.91-3.99-8.91-8.91s3.99-8.91,8.91-8.91s8.91,3.99,8.91,8.91c0.01,4.91-3.96,8.89-8.86,8.91
	C89.4,116.09,89.39,116.09,89.38,116.09z M172.5,181.41c0,1.64-1.33,2.97-2.97,2.97h-53.44c-1.64,0-2.97-1.33-2.97-2.97v-5.94
	c0-1.64,1.33-2.97,2.97-2.97h53.44c1.64,0,2.97,1.33,2.97,2.97V181.41z M172.5,145.78c0,1.64-1.33,2.97-2.97,2.97h-53.44
	c-1.64,0-2.97-1.33-2.97-2.97v-5.94c0-1.64,1.33-2.97,2.97-2.97h53.44c1.64,0,2.97,1.33,2.97,2.97V145.78z M172.5,110.16
	c0,1.64-1.33,2.97-2.97,2.97h-53.44c-1.64,0-2.97-1.33-2.97-2.97v-5.94c0-1.64,1.33-2.97,2.97-2.97h53.44
	c1.64,0,2.97,1.33,2.97,2.97V110.16z"/>
<path class="st1" d="M89.38,169.53c-4.92,0-8.91,3.99-8.91,8.91s3.99,8.91,8.91,8.91s8.91-3.99,8.91-8.91
	c0.01-4.91-3.96-8.89-8.86-8.91C89.4,169.53,89.39,169.53,89.38,169.53z M89.38,133.91c-4.92,0-8.91,3.99-8.91,8.91
	s3.99,8.91,8.91,8.91s8.91-3.99,8.91-8.91c0.01-4.91-3.96-8.89-8.86-8.91C89.4,133.91,89.39,133.91,89.38,133.91z M89.38,98.28
	c-4.92,0-8.91,3.99-8.91,8.91s3.99,8.91,8.91,8.91s8.91-3.99,8.91-8.91c0.01-4.91-3.96-8.89-8.86-8.91
	C89.4,98.28,89.39,98.28,89.38,98.28z M148.75,53.75C148.75,40.63,138.12,30,125,30s-23.75,10.63-23.75,23.75
	c-13.12,0-23.75,10.63-23.75,23.75h95C172.5,64.38,161.87,53.75,148.75,53.75z M125,62.66c-4.92,0-8.91-3.99-8.91-8.91
	s3.99-8.91,8.91-8.91c4.92,0,8.91,3.99,8.91,8.91c0.01,4.91-3.96,8.89-8.86,8.91C125.03,62.66,125.01,62.66,125,62.66z"/>
</svg>
